<?xml version="1.0" encoding="UTF-8"?>
<svg width="8px" height="7px" viewBox="0 0 8 7" version="1.1" xmlns="http://www.w3.org/2000/svg" xmlns:xlink="http://www.w3.org/1999/xlink">
    <!-- Generator: Sketch 55.2 (78181) - https://sketchapp.com -->
    <title>Rectangle</title>
    <desc>Created with Sketch.</desc>
    <g id="win" stroke="none" stroke-width="1" fill="none" fill-rule="evenodd">
        <g id="ms-paint-frame" transform="translate(-663.000000, -9.000000)" fill="#000000">
            <g id="head">
                <g transform="translate(4.000000, 4.000000)">
                    <g id="button3" transform="translate(655.000000, 2.000000)">
                        <g id="close" transform="translate(4.000000, 3.000000)">
                            <path d="M0,0 L2,0 L2,1 L0,1 L0,0 Z M1,1 L3,1 L3,2 L1,2 L1,1 Z M2,2 L4,2 L4,3 L2,3 L2,2 Z M3,3 L5,3 L5,4 L3,4 L3,3 Z M4,2 L6,2 L6,3 L4,3 L4,2 Z M5,1 L7,1 L7,2 L5,2 L5,1 Z M1,5 L3,5 L3,6 L1,6 L1,5 Z M5,5 L7,5 L7,6 L5,6 L5,5 Z M6,6 L8,6 L8,7 L6,7 L6,6 Z M0,6 L2,6 L2,7 L0,7 L0,6 Z M6,0 L8,0 L8,1 L6,1 L6,0 Z M2,4 L4,4 L4,5 L2,5 L2,4 Z M4,4 L6,4 L6,5 L4,5 L4,4 Z" id="Rectangle"></path>
                        </g>
                    </g>
                </g>
            </g>
        </g>
    </g>
</svg>